<?xml version="1.0" encoding="UTF-8"?>
<!-- Created with Grafika (https://www.grafika.cc/) -->
<svg xmlns="http://www.w3.org/2000/svg" xmlns:svg="http://www.w3.org/2000/svg" xmlns:xlink="http://www.w3.org/1999/xlink" width="1038.8" height="1038.8" viewBox="0 0 1038.8 1038.8" preserveAspectRatio="xMidYMid meet">
	<defs>
		<linearGradient gradientUnits="userSpaceOnUse" gradientTransform="matrix(377.8733825683594, -248.71510314941406, 182.588623046875, 277.4070129394531, 28.16404914855957, 52.869789123535156)" spreadMethod="repeat" id="gradient_1" x1="-1" y1="0" x2="1" y2="0">
			<stop offset="0%" stop-color="#000000" stop-opacity="1" />
			<stop offset="100%" stop-color="#FFFFFF" stop-opacity="1" />
		</linearGradient>
	</defs>
	<g transform="matrix(1, 0, 0, 1, 519.4017333984375, 519.4017333984375)">
		<rect x="-519.4" y="-519.4" width="1038.8" height="1038.8" rx="150" ry="150" style="fill:#FFFFFF;" />
		<path d="M-106.45,276.66 C-200.35,270.02 -285.72,211.22 -335.15,132.61 C-363.2,87.04 -377.14,33.35 -377.87,-19.95 C-377.87,-81.97 -354.26,-144.65 -308.64,-187.47 C-276.3,-220.33 -231.35,-238.23 -185.8,-241.78 C-157.21,-245.68 -128.47,-242.21 -100.15,-237.86 C-64.48,-249.64 -28.45,-267.43 10.05,-263.37 C19.57,-263.6 28.78,-255.22 15.56,-251.31 C6.61,-245.7 0.24,-237.53 -3.5,-227.8 C-4.77,-222.92 -4.36,-217.08 -3.79,-212.1 C1.37,-197.56 14.3,-188.75 26.68,-180.69 C60.14,-155.68 87.93,-124.16 117.97,-95.31 C133.31,-80.68 151.91,-69.2 171.52,-61.25 C180.61,-58.93 182.38,-68.96 184.32,-75.24 C187.89,-86.9 197.38,-103.51 181.43,-110.18 C167.1,-121.48 153.05,-133.96 144.77,-150.55 C133.38,-168.33 130.06,-189.63 128.18,-210.27 C128.67,-224.57 128.9,-238.98 134.01,-252.57 C137.42,-259.78 142.29,-283.09 153.32,-276.12 C158.24,-271.2 158.26,-262.71 161.61,-256.6 C166.18,-239.05 181.85,-228.78 197.63,-222.33 C215.82,-214.24 232.14,-199.43 235.96,-179.1 C243.05,-165.52 256.99,-192.23 268.75,-192.54 C279.32,-197.52 290.68,-199.68 302.29,-199.36 C312.71,-200.13 323.73,-198.59 332.93,-204.75 C347.61,-209.95 354.58,-226.25 368.52,-232.47 C373.89,-229.94 377.47,-226.13 377.87,-220.02 C375.64,-178 358.42,-133.82 321.55,-110.54 C303.05,-98.05 281.05,-92.63 259.32,-89.1 C252.36,-84.84 256.55,-75.45 255.36,-68.71 C256.67,-48.14 250.07,-28.3 246.28,-8.31 C242.38,12.31 234.59,31.92 227.87,51.71 C214.31,82.79 196.95,112.23 174.18,137.51 C166.96,148.85 150.73,158.65 149.28,171.12 C165.66,181 184.8,185.45 201.88,194.17 C206.96,196.98 213.55,198.36 217.76,202 C220.81,206.93 220.3,212.04 218.2,217.23 C214.03,221.6 209.76,225.85 203.38,226.33 C185.88,231.48 167.5,230.5 149.5,230.82 C131.24,228.9 112.8,226.39 95.74,219.25 C81.44,222.75 71.03,236.86 57.21,243.13 C12.59,271.56 -41.88,278.2 -93.73,277.34 C-97.98,277.2 -102.21,276.98 -106.45,276.66 ZM82.28,217.09 C88.72,213.97 77.88,208.68 74.89,206.28 C22.78,168.65 -12.25,113.78 -47.72,61.39 C-90.42,-2.45 -154.5,-52.93 -229.12,-73.26 C-259.31,-81.17 -292.14,-86.73 -322.64,-77.35 C-328.74,-75.78 -331.97,-69.1 -332.06,-63.34 C-330.27,5.1 -305.31,72.95 -262.19,126.12 C-238.18,154 -209.3,178.8 -175.68,194.22 C-158.57,200.41 -137.62,205.29 -121.33,194.29 C-113.49,188.71 -113.97,178.6 -119.69,172.03 C-126.02,160.58 -133.83,146.89 -131.82,133.77 C-128.58,127.77 -122.35,129.81 -116.76,130.16 C-74.94,147.55 -41.4,179.02 -4.25,204.03 C21.89,218.75 53.12,219.78 82.28,217.09 ZM107.34,47.53 C115.03,45.06 125.2,42.48 127.46,33.67 C128.19,24.16 121.2,16.17 117.66,7.8 C104.59,-14.39 87.9,-35.22 67.18,-50.57 C53.14,-58.05 34.64,-64.3 19.97,-55.59 C15.46,-51.94 9.77,-46.75 11.8,-40.57 C14.31,-32.22 24.1,-30.65 31.71,-30.41 C44.74,-30.7 57.9,-17.84 53.48,-4.52 C51.97,6.24 51.45,17.69 57.46,27.18 C68.03,40.03 84,51.97 101.59,48.52 L104.69,48.08 L107.34,47.53 ZM34.47,1.11 C41.7,-2.41 41.81,-13.44 35.38,-18.26 C31.83,-20.84 24.25,-22 20.91,-18.21 C8.88,-9.57 22.23,9.69 34.47,1.11 Z" style="fill:url(#gradient_1);" />
	</g>
</svg>
